<svg width="205" height="63" viewBox="0 0 205 63" fill="none" xmlns="http://www.w3.org/2000/svg">
<g filter="url(#filter0_d_9_5)">
<mask id="path-1-outside-1_9_5" maskUnits="userSpaceOnUse" x="-2" y="-5" width="201" height="59" fill="black">
<rect fill="white" x="-2" y="-5" width="201" height="59"/>
<path d="M44.664 15.28C44.664 18 43.704 20.352 41.784 22.336C39.864 24.288 37.064 25.696 33.384 26.56C35.368 27.104 36.872 28 37.896 29.248C38.92 30.464 39.432 31.872 39.432 33.472C39.432 36 38.632 38.192 37.032 40.048C35.464 41.904 33.16 43.344 30.12 44.368C27.08 45.36 23.416 45.856 19.128 45.856C17.528 45.856 16.248 45.808 15.288 45.712C15.256 46.608 14.872 47.28 14.136 47.728C13.4 48.176 12.456 48.4 11.304 48.4C10.152 48.4 9.352 48.144 8.904 47.632C8.488 47.12 8.312 46.368 8.376 45.376C8.664 40.896 9.224 36.208 10.056 31.312C10.888 26.384 11.944 21.632 13.224 17.056C13.448 16.256 13.896 15.696 14.568 15.376C15.24 15.056 16.12 14.896 17.208 14.896C19.16 14.896 20.136 15.44 20.136 16.528C20.136 16.976 20.04 17.488 19.848 18.064C19.016 20.56 18.184 23.952 17.352 28.24C16.52 32.496 15.928 36.56 15.576 40.432C17.112 40.56 18.36 40.624 19.32 40.624C23.8 40.624 27.08 39.984 29.16 38.704C31.272 37.392 32.328 35.728 32.328 33.712C32.328 32.304 31.72 31.12 30.504 30.16C29.32 29.2 27.32 28.672 24.504 28.576C23.864 28.544 23.416 28.384 23.16 28.096C22.904 27.808 22.776 27.344 22.776 26.704C22.776 25.776 22.968 25.024 23.352 24.448C23.736 23.872 24.44 23.568 25.464 23.536C27.736 23.472 29.784 23.136 31.608 22.528C33.464 21.92 34.92 21.072 35.976 19.984C37.032 18.864 37.56 17.568 37.56 16.096C37.56 14.24 36.648 12.784 34.824 11.728C33 10.64 30.2 10.096 26.424 10.096C23 10.096 19.688 10.544 16.488 11.44C13.288 12.304 10.568 13.408 8.328 14.752C7.304 15.36 6.44 15.664 5.736 15.664C5.16 15.664 4.712 15.472 4.392 15.088C4.104 14.672 3.96 14.16 3.96 13.552C3.96 12.752 4.12 12.064 4.44 11.488C4.792 10.912 5.608 10.256 6.888 9.52C9.576 7.984 12.728 6.784 16.344 5.92C19.96 5.056 23.656 4.624 27.432 4.624C33.224 4.624 37.544 5.6 40.392 7.552C43.24 9.504 44.664 12.08 44.664 15.28ZM64.7276 35.296C65.1436 35.296 65.4636 35.488 65.6876 35.872C65.9436 36.256 66.0716 36.784 66.0716 37.456C66.0716 38.736 65.7676 39.728 65.1596 40.432C63.9756 41.872 62.2956 43.2 60.1196 44.416C57.9756 45.632 55.6716 46.24 53.2076 46.24C49.8476 46.24 47.2396 45.328 45.3836 43.504C43.5276 41.68 42.5996 39.184 42.5996 36.016C42.5996 33.808 43.0636 31.76 43.9916 29.872C44.9196 27.952 46.1996 26.432 47.8316 25.312C49.4956 24.192 51.3676 23.632 53.4476 23.632C55.3036 23.632 56.7916 24.192 57.9116 25.312C59.0316 26.4 59.5916 27.888 59.5916 29.776C59.5916 31.984 58.7916 33.888 57.1916 35.488C55.6236 37.056 52.9516 38.304 49.1756 39.232C49.9756 40.704 51.4956 41.44 53.7356 41.44C55.1756 41.44 56.8076 40.944 58.6316 39.952C60.4876 38.928 62.0876 37.6 63.4316 35.968C63.8156 35.52 64.2476 35.296 64.7276 35.296ZM52.6316 28.336C51.4476 28.336 50.4396 29.024 49.6076 30.4C48.8076 31.776 48.4076 33.44 48.4076 35.392V35.488C50.2956 35.04 51.7836 34.368 52.8716 33.472C53.9596 32.576 54.5036 31.536 54.5036 30.352C54.5036 29.744 54.3276 29.264 53.9756 28.912C53.6556 28.528 53.2076 28.336 52.6316 28.336ZM83.5714 35.296C83.9874 35.296 84.3074 35.488 84.5314 35.872C84.7874 36.256 84.9154 36.784 84.9154 37.456C84.9154 38.736 84.6114 39.728 84.0034 40.432C82.6274 42.128 81.1234 43.52 79.4914 44.608C77.8594 45.696 75.9874 46.24 73.8754 46.24C67.3474 46.24 64.0834 41.648 64.0834 32.464C64.0834 31.056 64.1314 29.632 64.2274 28.192H62.3554C61.3954 28.192 60.7394 28.016 60.3874 27.664C60.0674 27.312 59.9074 26.752 59.9074 25.984C59.9074 24.192 60.6274 23.296 62.0674 23.296H64.8034C65.3474 19.776 66.1794 16.56 67.2994 13.648C68.4194 10.736 69.7634 8.416 71.3314 6.688C72.9314 4.96 74.6434 4.096 76.4674 4.096C77.8114 4.096 78.8674 4.688 79.6354 5.872C80.4034 7.056 80.7874 8.544 80.7874 10.336C80.7874 15.296 78.7074 19.616 74.5474 23.296H79.9234C80.4354 23.296 80.8034 23.408 81.0274 23.632C81.2514 23.856 81.3634 24.272 81.3634 24.88C81.3634 27.088 79.5554 28.192 75.9394 28.192H70.0834C70.0194 29.792 69.9874 31.04 69.9874 31.936C69.9874 35.264 70.3714 37.6 71.1394 38.944C71.9394 40.288 73.1874 40.96 74.8834 40.96C76.2594 40.96 77.4754 40.544 78.5314 39.712C79.5874 38.88 80.8354 37.632 82.2754 35.968C82.6594 35.52 83.0914 35.296 83.5714 35.296ZM75.1714 8.704C74.6914 8.704 74.1474 9.312 73.5394 10.528C72.9634 11.712 72.4034 13.376 71.8594 15.52C71.3474 17.632 70.9154 19.984 70.5634 22.576C72.4514 20.944 73.8594 19.12 74.7874 17.104C75.7474 15.056 76.2274 13.2 76.2274 11.536C76.2274 9.648 75.8754 8.704 75.1714 8.704ZM86.9111 46.24C84.9271 46.24 83.3431 45.52 82.1591 44.08C80.9751 42.64 80.3831 40.752 80.3831 38.416C80.3831 35.856 80.9751 33.44 82.1591 31.168C83.3431 28.864 84.9111 27.024 86.8631 25.648C88.8471 24.24 90.9431 23.536 93.1511 23.536C93.8551 23.536 94.3191 23.68 94.5431 23.968C94.7991 24.224 95.0071 24.704 95.1671 25.408C95.8391 25.28 96.5431 25.216 97.2791 25.216C98.8471 25.216 99.6311 25.776 99.6311 26.896C99.6311 27.568 99.3911 29.168 98.9111 31.696C98.1751 35.376 97.8071 37.936 97.8071 39.376C97.8071 39.856 97.9191 40.24 98.1431 40.528C98.3991 40.816 98.7191 40.96 99.1031 40.96C99.7111 40.96 100.447 40.576 101.311 39.808C102.175 39.008 103.343 37.728 104.815 35.968C105.199 35.52 105.631 35.296 106.111 35.296C106.527 35.296 106.847 35.488 107.071 35.872C107.327 36.256 107.455 36.784 107.455 37.456C107.455 38.736 107.151 39.728 106.543 40.432C105.231 42.064 103.839 43.44 102.367 44.56C100.895 45.68 99.4711 46.24 98.0951 46.24C97.0391 46.24 96.0631 45.888 95.1671 45.184C94.3031 44.448 93.6471 43.456 93.1991 42.208C91.5351 44.896 89.4391 46.24 86.9111 46.24ZM88.6391 41.392C89.3431 41.392 90.0151 40.976 90.6551 40.144C91.2951 39.312 91.7591 38.208 92.0471 36.832L93.8231 28C92.4791 28.032 91.2311 28.544 90.0791 29.536C88.9591 30.496 88.0631 31.776 87.3911 33.376C86.7191 34.976 86.3831 36.672 86.3831 38.464C86.3831 39.456 86.5751 40.192 86.9591 40.672C87.3751 41.152 87.9351 41.392 88.6391 41.392ZM141.618 6.16C142.61 6.352 143.346 6.688 143.826 7.168C144.338 7.648 144.594 8.208 144.594 8.848C144.594 9.904 144.29 10.672 143.682 11.152C143.106 11.632 142.178 11.824 140.898 11.728C138.018 11.504 135.762 11.36 134.13 11.296C132.53 11.2 130.418 11.136 127.794 11.104C126.61 16.992 125.522 22.912 124.53 28.864C124.178 31.04 123.81 33.568 123.426 36.448C123.042 39.296 122.786 41.6 122.658 43.36C122.594 44.288 122.21 45.008 121.506 45.52C120.802 46 119.954 46.24 118.962 46.24C117.906 46.24 117.09 45.984 116.514 45.472C115.938 44.96 115.65 44.288 115.65 43.456C115.65 42.688 115.762 41.424 115.986 39.664C116.242 37.872 116.53 36 116.85 34.048C117.202 32.096 117.474 30.4 117.666 28.96C118.018 26.528 118.418 24.112 118.866 21.712C119.314 19.312 119.762 17.04 120.21 14.896C120.306 14.416 120.418 13.872 120.546 13.264C120.674 12.624 120.818 11.92 120.978 11.152C117.842 11.248 115.378 11.504 113.586 11.92C111.794 12.336 110.514 12.928 109.746 13.696C109.01 14.432 108.642 15.392 108.642 16.576C108.642 17.664 108.962 18.704 109.602 19.696C109.73 19.92 109.794 20.16 109.794 20.416C109.794 21.024 109.426 21.6 108.69 22.144C107.986 22.656 107.25 22.912 106.482 22.912C105.938 22.912 105.49 22.752 105.138 22.432C104.498 21.888 103.97 21.12 103.554 20.128C103.138 19.104 102.93 17.952 102.93 16.672C102.93 13.952 103.81 11.776 105.57 10.144C107.362 8.48 110.066 7.264 113.682 6.496C117.33 5.728 122.002 5.344 127.698 5.344C131.218 5.344 134.018 5.408 136.098 5.536C138.21 5.664 140.05 5.872 141.618 6.16ZM138.38 46.24C136.396 46.24 134.812 45.52 133.628 44.08C132.444 42.64 131.852 40.752 131.852 38.416C131.852 35.856 132.444 33.44 133.628 31.168C134.812 28.864 136.38 27.024 138.332 25.648C140.316 24.24 142.412 23.536 144.62 23.536C145.324 23.536 145.788 23.68 146.012 23.968C146.268 24.224 146.476 24.704 146.636 25.408C147.308 25.28 148.012 25.216 148.748 25.216C150.316 25.216 151.1 25.776 151.1 26.896C151.1 27.568 150.86 29.168 150.38 31.696C149.644 35.376 149.276 37.936 149.276 39.376C149.276 39.856 149.388 40.24 149.612 40.528C149.868 40.816 150.188 40.96 150.572 40.96C151.18 40.96 151.916 40.576 152.78 39.808C153.644 39.008 154.812 37.728 156.284 35.968C156.668 35.52 157.1 35.296 157.58 35.296C157.996 35.296 158.316 35.488 158.54 35.872C158.796 36.256 158.924 36.784 158.924 37.456C158.924 38.736 158.62 39.728 158.012 40.432C156.7 42.064 155.308 43.44 153.836 44.56C152.364 45.68 150.94 46.24 149.564 46.24C148.508 46.24 147.532 45.888 146.636 45.184C145.772 44.448 145.116 43.456 144.668 42.208C143.004 44.896 140.908 46.24 138.38 46.24ZM140.108 41.392C140.812 41.392 141.484 40.976 142.124 40.144C142.764 39.312 143.228 38.208 143.516 36.832L145.292 28C143.948 28.032 142.7 28.544 141.548 29.536C140.428 30.496 139.532 31.776 138.86 33.376C138.188 34.976 137.852 36.672 137.852 38.464C137.852 39.456 138.044 40.192 138.428 40.672C138.844 41.152 139.404 41.392 140.108 41.392ZM173.215 35.296C173.631 35.296 173.951 35.488 174.175 35.872C174.431 36.256 174.559 36.784 174.559 37.456C174.559 38.736 174.255 39.728 173.647 40.432C172.271 42.128 170.767 43.52 169.135 44.608C167.535 45.696 165.711 46.24 163.663 46.24C160.847 46.24 158.751 44.96 157.375 42.4C156.031 39.84 155.359 36.528 155.359 32.464C155.359 28.56 155.855 24.112 156.847 19.12C157.871 14.128 159.359 9.84 161.311 6.256C163.295 2.672 165.647 0.879997 168.367 0.879997C169.903 0.879997 171.103 1.6 171.967 3.04C172.863 4.448 173.311 6.48 173.311 9.136C173.311 12.944 172.255 17.36 170.143 22.384C168.031 27.408 165.167 32.384 161.551 37.312C161.775 38.624 162.143 39.568 162.655 40.144C163.167 40.688 163.839 40.96 164.671 40.96C165.983 40.96 167.135 40.592 168.127 39.856C169.119 39.088 170.383 37.792 171.919 35.968C172.303 35.52 172.735 35.296 173.215 35.296ZM167.311 5.632C166.575 5.632 165.743 6.96 164.815 9.616C163.887 12.272 163.071 15.568 162.367 19.504C161.663 23.44 161.279 27.216 161.215 30.832C163.487 27.088 165.295 23.344 166.639 19.6C167.983 15.824 168.655 12.384 168.655 9.28C168.655 6.848 168.207 5.632 167.311 5.632ZM191.079 41.008C192.391 41.264 193.047 41.984 193.047 43.168C193.047 43.968 192.679 44.688 191.943 45.328C191.239 45.936 190.215 46.24 188.871 46.24C186.567 46.24 184.679 45.536 183.207 44.128C181.767 42.688 181.047 40.816 181.047 38.512C181.047 37.264 181.687 36.368 182.967 35.824C184.375 35.216 185.383 34.576 185.991 33.904C186.599 33.2 186.903 32.352 186.903 31.36C186.903 30.784 186.775 30.352 186.519 30.064C186.295 29.776 186.007 29.632 185.655 29.632C184.791 29.632 183.831 30.256 182.775 31.504C181.751 32.752 180.791 34.368 179.895 36.352C178.999 38.304 178.295 40.32 177.783 42.4C177.431 43.904 177.015 44.928 176.535 45.472C176.087 45.984 175.367 46.24 174.375 46.24C173.383 46.24 172.647 45.888 172.167 45.184C171.719 44.448 171.415 43.328 171.255 41.824C171.095 40.32 171.015 38.112 171.015 35.2C171.015 30.272 171.511 25.136 172.503 19.792C173.527 14.448 175.015 9.968 176.967 6.352C178.951 2.704 181.319 0.879997 184.071 0.879997C185.543 0.879997 186.727 1.52 187.623 2.8C188.551 4.048 189.015 5.68 189.015 7.696C189.015 10.928 188.071 14.288 186.183 17.776C184.295 21.232 181.223 25.28 176.967 29.92C176.871 31.584 176.823 33.296 176.823 35.056C178.359 31.056 180.119 28.16 182.103 26.368C184.087 24.544 185.943 23.632 187.671 23.632C189.271 23.632 190.551 24.176 191.511 25.264C192.503 26.352 192.999 27.696 192.999 29.296C192.999 31.056 192.551 32.672 191.655 34.144C190.759 35.616 189.223 36.928 187.047 38.08C187.239 39.04 187.623 39.712 188.199 40.096C188.807 40.448 189.767 40.752 191.079 41.008ZM183.063 5.632C182.487 5.632 181.847 6.464 181.143 8.128C180.439 9.76 179.751 11.984 179.079 14.8C178.439 17.584 177.911 20.624 177.495 23.92C179.479 21.584 181.111 19.04 182.391 16.288C183.703 13.536 184.359 11.04 184.359 8.8C184.359 7.776 184.247 6.992 184.023 6.448C183.799 5.904 183.479 5.632 183.063 5.632Z"/>
</mask>
<path d="M41.784 22.336L45.3486 25.8422L45.3629 25.8277L45.377 25.8131L41.784 22.336ZM33.384 26.56L32.2412 21.6924L32.0618 31.382L33.384 26.56ZM37.896 29.248L34.0306 32.4196L34.0509 32.4443L34.0714 32.4687L37.896 29.248ZM37.032 40.048L33.245 36.7833L33.2287 36.8022L33.2126 36.8212L37.032 40.048ZM30.12 44.368L31.6711 49.1213L31.6936 49.114L31.7161 49.1064L30.12 44.368ZM15.288 45.712L15.7855 40.7368L10.4814 40.2064L10.2912 45.5335L15.288 45.712ZM14.136 47.728L11.5363 43.457L11.5363 43.457L14.136 47.728ZM8.904 47.632L5.02343 50.785L5.081 50.8558L5.14112 50.9245L8.904 47.632ZM8.376 45.376L13.3656 45.6979L13.3657 45.6968L8.376 45.376ZM10.056 31.312L14.9853 32.1497L14.9862 32.1444L10.056 31.312ZM13.224 17.056L8.40918 15.7078L8.40883 15.7091L13.224 17.056ZM14.568 15.376L12.4183 10.8617L12.4183 10.8617L14.568 15.376ZM19.848 18.064L15.1046 16.4829L15.1046 16.4829L19.848 18.064ZM17.352 28.24L22.2591 29.1993L22.2605 29.1924L17.352 28.24ZM15.576 40.432L10.5965 39.9793L10.1404 44.9964L15.1608 45.4147L15.576 40.432ZM29.16 38.704L31.7805 42.9623L31.7895 42.9568L31.7984 42.9512L29.16 38.704ZM30.504 30.16L27.355 34.0438L27.3803 34.0643L27.4058 34.0844L30.504 30.16ZM24.504 28.576L24.2543 33.5698L24.294 33.5717L24.3336 33.5731L24.504 28.576ZM23.16 28.096L19.423 31.4178L19.423 31.4178L23.16 28.096ZM23.352 24.448L19.1918 21.6745L19.1917 21.6745L23.352 24.448ZM25.464 23.536L25.3232 18.538L25.3155 18.5382L25.3078 18.5384L25.464 23.536ZM31.608 22.528L30.0515 17.7765L30.0392 17.7805L30.0269 17.7846L31.608 22.528ZM35.976 19.984L39.5639 23.4664L39.5891 23.4404L39.6139 23.4141L35.976 19.984ZM34.824 11.728L32.2626 16.0221L32.2906 16.0388L32.3188 16.0551L34.824 11.728ZM16.488 11.44L17.7913 16.2671L17.8138 16.2611L17.8362 16.2548L16.488 11.44ZM8.328 14.752L10.8807 19.0513L10.8906 19.0454L10.9005 19.0395L8.328 14.752ZM4.392 15.088L0.281044 17.9341L0.408049 18.1175L0.55089 18.2889L4.392 15.088ZM4.44 11.488L0.17359 8.88075L0.119546 8.96918L0.0692133 9.05978L4.44 11.488ZM6.888 9.52L4.4073 5.17877L4.39564 5.18547L6.888 9.52ZM16.344 5.92L17.506 10.7831L17.506 10.7831L16.344 5.92ZM40.392 7.552L43.2187 3.42774L43.2187 3.42774L40.392 7.552ZM39.664 15.28C39.664 16.6807 39.2237 17.7918 38.191 18.8589L45.377 25.8131C48.1843 22.9122 49.664 19.3193 49.664 15.28H39.664ZM38.2194 18.8298C37.1686 19.8981 35.3385 20.9652 32.2412 21.6924L34.5268 31.4276C38.7895 30.4268 42.5594 28.6779 45.3486 25.8422L38.2194 18.8298ZM32.0618 31.382C33.3221 31.7276 33.823 32.1666 34.0306 32.4196L41.7614 26.0764C39.921 23.8334 37.4139 22.4804 34.7062 21.738L32.0618 31.382ZM34.0714 32.4687C34.3309 32.7768 34.432 33.0422 34.432 33.472H44.432C44.432 30.7018 43.5091 28.1512 41.7206 26.0273L34.0714 32.4687ZM34.432 33.472C34.432 34.843 34.0358 35.8659 33.245 36.7833L40.8191 43.3127C43.2282 40.5181 44.432 37.157 44.432 33.472H34.432ZM33.2126 36.8212C32.3939 37.7903 30.9686 38.8061 28.5239 39.6296L31.7161 49.1064C35.3514 47.8819 38.5341 46.0177 40.8514 43.2748L33.2126 36.8212ZM28.5689 39.6147C26.1675 40.3983 23.0569 40.856 19.128 40.856V50.856C23.7751 50.856 27.9925 50.3217 31.6711 49.1213L28.5689 39.6147ZM19.128 40.856C17.6015 40.856 16.5083 40.8091 15.7855 40.7368L14.7905 50.6872C15.9877 50.8069 17.4545 50.856 19.128 50.856V40.856ZM10.2912 45.5335C10.2995 45.3011 10.3657 44.8782 10.6348 44.4073C10.9084 43.9284 11.2651 43.622 11.5363 43.457L16.7357 51.999C18.9767 50.6349 20.1957 48.3851 20.2848 45.8905L10.2912 45.5335ZM11.5363 43.457C11.6684 43.3766 11.7471 43.361 11.7216 43.3671C11.6905 43.3745 11.5614 43.4 11.304 43.4V53.4C13.0731 53.4 14.9947 53.0588 16.7357 51.999L11.5363 43.457ZM11.304 43.4C11.0673 43.4 11.1265 43.3699 11.3639 43.4459C11.6276 43.5303 12.1661 43.7672 12.6669 44.3395L5.14112 50.9245C7.02612 53.0788 9.6685 53.4 11.304 53.4V43.4ZM12.7846 44.479C13.1291 44.9031 13.2732 45.3085 13.3284 45.5446C13.3792 45.7615 13.3567 45.8365 13.3656 45.6979L3.38637 45.0541C3.28137 46.6816 3.49285 48.9012 5.02343 50.785L12.7846 44.479ZM13.3657 45.6968C13.6415 41.4071 14.1794 36.8923 14.9853 32.1497L5.12667 30.4743C4.2686 35.5237 3.68653 40.3849 3.3863 45.0552L13.3657 45.6968ZM14.9862 32.1444C15.7905 27.3809 16.8089 22.8011 18.0392 18.4029L8.40883 15.7091C7.07909 20.4629 5.98555 25.3871 5.12577 30.4796L14.9862 32.1444ZM18.0388 18.4041C17.9981 18.5496 17.8892 18.8384 17.6323 19.1595C17.366 19.4924 17.0376 19.738 16.7177 19.8903L12.4183 10.8617C10.2819 11.879 8.97198 13.6978 8.40918 15.7078L18.0388 18.4041ZM16.7177 19.8903C16.5844 19.9538 16.5365 19.9517 16.6264 19.9353C16.7162 19.919 16.9021 19.896 17.208 19.896V9.896C15.6928 9.896 13.9986 10.1092 12.4183 10.8617L16.7177 19.8903ZM17.208 19.896C17.4782 19.896 17.587 19.916 17.5757 19.9139C17.5745 19.9137 17.3276 19.8709 16.9697 19.6714C16.5827 19.4557 16.0634 19.0517 15.6618 18.3803C15.2562 17.702 15.136 17.0269 15.136 16.528H25.136C25.136 15.4851 24.8938 14.334 24.2442 13.2477C23.5986 12.1682 22.7133 11.4243 21.8383 10.9366C20.2395 10.0455 18.4846 9.896 17.208 9.896V19.896ZM15.136 16.528C15.136 16.4618 15.1395 16.4113 15.1428 16.3785C15.1461 16.3456 15.1494 16.3279 15.1496 16.3266C15.1499 16.3252 15.1476 16.3375 15.1405 16.3645C15.1333 16.3915 15.122 16.4307 15.1046 16.4829L24.5914 19.6451C24.8972 18.7279 25.136 17.6662 25.136 16.528H15.136ZM15.1046 16.4829C14.1741 19.2744 13.2937 22.9058 12.4435 27.2876L22.2605 29.1924C23.0743 24.9982 23.8579 21.8456 24.5914 19.6451L15.1046 16.4829ZM12.4449 27.2807C11.5838 31.6854 10.9656 35.9193 10.5965 39.9793L20.5555 40.8847C20.8904 37.2007 21.4562 33.3066 22.2591 29.1993L12.4449 27.2807ZM15.1608 45.4147C16.7631 45.5483 18.1644 45.624 19.32 45.624V35.624C18.5556 35.624 17.4609 35.5717 15.9912 35.4493L15.1608 45.4147ZM19.32 45.624C24.0655 45.624 28.4945 44.9844 31.7805 42.9623L26.5395 34.4457C25.6655 34.9836 23.5345 35.624 19.32 35.624V45.624ZM31.7984 42.9512C34.9836 40.9725 37.328 37.876 37.328 33.712H27.328C27.328 33.7743 27.3206 33.7905 27.324 33.7789C27.3275 33.7664 27.3301 33.7681 27.3144 33.7929C27.2807 33.846 27.101 34.0968 26.5216 34.4568L31.7984 42.9512ZM37.328 33.712C37.328 30.6064 35.8815 28.035 33.6022 26.2356L27.4058 34.0844C27.5432 34.1929 27.4967 34.1934 27.4242 34.052C27.3901 33.9858 27.3631 33.9122 27.3461 33.8398C27.3294 33.7687 27.328 33.7223 27.328 33.712H37.328ZM33.653 26.2762C31.1614 24.256 27.7755 23.6846 24.6744 23.5789L24.3336 33.5731C25.4926 33.6126 26.3044 33.737 26.8397 33.8784C27.3859 34.0226 27.4721 34.1387 27.355 34.0438L33.653 26.2762ZM24.7537 23.5822C24.7647 23.5828 25.0047 23.5929 25.3697 23.7233C25.7532 23.8603 26.3509 24.1598 26.897 24.7742L19.423 31.4178C21.0069 33.1998 23.1175 33.5129 24.2543 33.5698L24.7537 23.5822ZM26.8971 24.7742C27.3886 25.3271 27.6018 25.8757 27.692 26.2024C27.7376 26.3678 27.7576 26.4965 27.7667 26.5751C27.7759 26.6544 27.776 26.6997 27.776 26.704H17.776C17.776 27.8149 17.9631 29.7755 19.423 31.4178L26.8971 24.7742ZM27.776 26.704C27.776 26.4343 27.8335 26.7396 27.5123 27.2215L19.1917 21.6745C18.1025 23.3084 17.776 25.1177 17.776 26.704H27.776ZM27.5123 27.2215C27.112 27.8218 26.5854 28.1904 26.1502 28.3783C25.7662 28.5441 25.5379 28.5361 25.6202 28.5336L25.3078 18.5384C23.4836 18.5954 20.8454 19.1941 19.1918 21.6745L27.5123 27.2215ZM25.6048 28.534C28.2802 28.4587 30.8245 28.0596 33.1891 27.2714L30.0269 17.7846C28.7435 18.2124 27.1918 18.4853 25.3232 18.538L25.6048 28.534ZM33.1645 27.2795C35.5751 26.4899 37.8045 25.2791 39.5639 23.4664L32.3881 16.5016C32.0355 16.8649 31.3529 17.3501 30.0515 17.7765L33.1645 27.2795ZM39.6139 23.4141C41.5006 21.4131 42.56 18.9062 42.56 16.096H32.56C32.56 16.2192 32.541 16.2673 32.5335 16.2855C32.5245 16.3077 32.4851 16.3979 32.3381 16.5539L39.6139 23.4141ZM42.56 16.096C42.56 12.1833 40.4459 9.2053 37.3292 7.40087L32.3188 16.0551C32.5015 16.1609 32.5984 16.2404 32.6395 16.2781C32.6779 16.3134 32.6669 16.3113 32.6386 16.2662C32.6089 16.2187 32.5834 16.1608 32.5684 16.1064C32.5542 16.0547 32.56 16.0446 32.56 16.096H42.56ZM37.3854 7.4339C34.3938 5.64944 30.4953 5.096 26.424 5.096V15.096C29.9047 15.096 31.6062 15.6306 32.2626 16.0221L37.3854 7.4339ZM26.424 5.096C22.5582 5.096 18.7919 5.6026 15.1399 6.62518L17.8362 16.2548C20.5841 15.4854 23.4418 15.096 26.424 15.096V5.096ZM15.1847 6.61285C11.6523 7.5666 8.48119 8.82913 5.75552 10.4645L10.9005 19.0395C12.6548 17.9869 14.9237 17.0414 17.7913 16.2671L15.1847 6.61285ZM5.77531 10.4527C5.62613 10.5413 5.50649 10.6047 5.41519 10.6488C5.3234 10.6931 5.26992 10.7133 5.25247 10.7194C5.23459 10.7257 5.2661 10.7132 5.34233 10.6984C5.4189 10.6836 5.55337 10.664 5.736 10.664V20.664C7.7624 20.664 9.55612 19.8377 10.8807 19.0513L5.77531 10.4527ZM5.736 10.664C6.00393 10.664 6.43672 10.7096 6.9376 10.9243C7.45769 11.1472 7.90142 11.489 8.23311 11.8871L0.55089 18.2889C1.97148 19.9936 3.92863 20.664 5.736 20.664V10.664ZM8.50296 12.2419C8.90236 12.8189 8.96 13.3519 8.96 13.552H-1.04C-1.04 14.9681 -0.694361 16.5251 0.281044 17.9341L8.50296 12.2419ZM8.96 13.552C8.96 13.4839 8.9669 13.4961 8.95004 13.5686C8.93225 13.6451 8.8923 13.7695 8.81079 13.9162L0.0692133 9.05978C-0.743178 10.5221 -1.04 12.0831 -1.04 13.552H8.96ZM8.70641 14.0952C8.57192 14.3153 8.45612 14.4424 8.41953 14.481C8.37997 14.5227 8.38142 14.515 8.44879 14.4609C8.59183 14.3459 8.88155 14.1413 9.38036 13.8545L4.39564 5.18547C3.0592 5.95392 1.23962 7.13633 0.17359 8.88075L8.70641 14.0952ZM9.36869 13.8612C11.5712 12.6026 14.2626 11.5581 17.506 10.7831L15.182 1.05689C11.1934 2.00992 7.58081 3.36535 4.40731 5.17878L9.36869 13.8612ZM17.506 10.7831C20.7354 10.0115 24.0412 9.624 27.432 9.624V-0.376002C23.2708 -0.376002 19.1846 0.100522 15.182 1.05689L17.506 10.7831ZM27.432 9.624C32.8293 9.624 35.9426 10.5641 37.5653 11.6763L43.2187 3.42774C39.1454 0.635872 33.6187 -0.376002 27.432 -0.376002V9.624ZM37.5653 11.6763C39.1798 12.7829 39.664 13.877 39.664 15.28H49.664C49.664 10.283 47.3002 6.22512 43.2187 3.42774L37.5653 11.6763ZM65.6876 35.872L61.3687 38.3913L61.4442 38.5208L61.5274 38.6455L65.6876 35.872ZM65.1596 40.432L61.3755 37.1639L61.3359 37.2097L61.2975 37.2565L65.1596 40.432ZM60.1196 44.416L57.6805 40.0513L57.6667 40.059L57.6529 40.0668L60.1196 44.416ZM45.3836 43.504L48.8883 39.9379L48.8883 39.9379L45.3836 43.504ZM43.9916 29.872L48.4789 32.0776L48.4862 32.0627L48.4934 32.0478L43.9916 29.872ZM47.8316 25.312L45.0397 21.1641L45.021 21.1767L45.0024 21.1894L47.8316 25.312ZM57.9116 25.312L54.3761 28.8475L54.4017 28.8732L54.4277 28.8984L57.9116 25.312ZM57.1916 35.488L53.6561 31.9525L53.6561 31.9525L57.1916 35.488ZM49.1756 39.232L47.9823 34.3765L41.6869 35.9237L44.7825 41.6196L49.1756 39.232ZM58.6316 39.952L61.0205 44.3444L61.0338 44.3372L61.047 44.3299L58.6316 39.952ZM63.4316 35.968L59.6353 32.714L59.6033 32.7514L59.572 32.7895L63.4316 35.968ZM49.6076 30.4L45.329 27.8129L45.3067 27.8497L45.2851 27.8869L49.6076 30.4ZM48.4076 35.488H43.4076V41.8133L49.562 40.3529L48.4076 35.488ZM52.8716 33.472L49.6931 29.6123L49.6931 29.6123L52.8716 33.472ZM53.9756 28.912L50.1345 32.1129L50.2797 32.2872L50.4401 32.4475L53.9756 28.912ZM64.7276 40.296C64.1362 40.296 63.4109 40.1497 62.7071 39.7275C62.0191 39.3146 61.5998 38.7874 61.3687 38.3913L70.0065 33.3527C68.9615 31.5612 67.066 30.296 64.7276 30.296V40.296ZM61.5274 38.6455C61.039 37.913 61.0716 37.3438 61.0716 37.456H71.0716C71.0716 36.2242 70.8482 34.599 69.8479 33.0985L61.5274 38.6455ZM61.0716 37.456C61.0716 37.7106 61.0403 37.7694 61.0631 37.695C61.0909 37.6041 61.1761 37.3948 61.3755 37.1639L68.9437 43.7001C70.5877 41.7965 71.0716 39.4848 71.0716 37.456H61.0716ZM61.2975 37.2565C60.6183 38.0825 59.485 39.0429 57.6805 40.0513L62.5587 48.7807C65.1063 47.3571 67.3329 45.6615 69.0218 43.6075L61.2975 37.2565ZM57.6529 40.0668C56.2608 40.8564 54.8066 41.24 53.2076 41.24V51.24C56.5366 51.24 59.6905 50.4076 62.5863 48.7652L57.6529 40.0668ZM53.2076 41.24C50.7609 41.24 49.5594 40.5974 48.8883 39.9379L41.879 47.0701C44.9199 50.0586 48.9344 51.24 53.2076 51.24V41.24ZM48.8883 39.9379C48.1902 39.2519 47.5996 38.1543 47.5996 36.016H37.5996C37.5996 40.2137 38.865 44.1081 41.879 47.0701L48.8883 39.9379ZM47.5996 36.016C47.5996 34.5338 47.905 33.2452 48.4789 32.0776L39.5044 27.6664C38.2223 30.2748 37.5996 33.0822 37.5996 36.016H47.5996ZM48.4934 32.0478C49.073 30.8487 49.8014 30.0244 50.6608 29.4346L45.0024 21.1894C42.5978 22.8396 40.7663 25.0553 39.4899 27.6962L48.4934 32.0478ZM50.6235 29.4599C51.4306 28.9167 52.3233 28.632 53.4476 28.632V18.632C50.4119 18.632 47.5607 19.4673 45.0397 21.1641L50.6235 29.4599ZM53.4476 28.632C54.2232 28.632 54.3542 28.8257 54.3761 28.8475L61.4472 21.7765C59.229 19.5583 56.3841 18.632 53.4476 18.632V28.632ZM54.4277 28.8984C54.4498 28.9199 54.4665 28.9372 54.4921 29.0051C54.5246 29.0915 54.5916 29.3233 54.5916 29.776H64.5916C64.5916 26.8399 63.6825 23.9472 61.3956 21.7256L54.4277 28.8984ZM54.5916 29.776C54.5916 30.6215 54.3444 31.2641 53.6561 31.9525L60.7272 39.0235C63.2388 36.5119 64.5916 33.3465 64.5916 29.776H54.5916ZM53.6561 31.9525C53.0555 32.553 51.4536 33.5234 47.9823 34.3765L50.3689 44.0875C54.4497 43.0846 58.1917 41.559 60.7272 39.0235L53.6561 31.9525ZM44.7825 41.6196C46.7512 45.242 50.3736 46.44 53.7356 46.44V36.44C53.4454 36.44 53.2569 36.4158 53.1511 36.3951C53.0476 36.3749 53.0399 36.3613 53.0947 36.3878C53.1547 36.4169 53.253 36.4765 53.3577 36.5761C53.4626 36.676 53.5313 36.7755 53.5687 36.8444L44.7825 41.6196ZM53.7356 46.44C56.2978 46.44 58.7663 45.5704 61.0205 44.3444L56.2428 35.5596C54.8489 36.3176 54.0534 36.44 53.7356 36.44V46.44ZM61.047 44.3299C63.4543 43.0017 65.5448 41.2672 67.2913 39.1465L59.572 32.7895C58.6304 33.9328 57.5209 34.8543 56.2162 35.5741L61.047 44.3299ZM67.2279 39.222C67.0888 39.3843 66.806 39.6639 66.3452 39.9028C65.8603 40.1542 65.3001 40.296 64.7276 40.296V30.296C62.4591 30.296 60.732 31.4346 59.6353 32.714L67.2279 39.222ZM52.6316 23.336C49.0938 23.336 46.7031 25.5404 45.329 27.8129L53.8863 32.9871C54.044 32.7262 54.0501 32.8154 53.8063 32.9817C53.6772 33.0699 53.498 33.1652 53.2739 33.2355C53.0486 33.3063 52.8277 33.336 52.6316 33.336V23.336ZM45.2851 27.8869C43.9511 30.1813 43.4076 32.756 43.4076 35.392H53.4076C53.4076 34.124 53.6641 33.3706 53.9302 32.9131L45.2851 27.8869ZM43.4076 35.392V35.488H53.4076V35.392H43.4076ZM49.562 40.3529C51.9285 39.7914 54.1943 38.86 56.0502 37.3317L49.6931 29.6123C49.373 29.876 48.6627 30.2886 47.2532 30.6231L49.562 40.3529ZM56.0502 37.3317C58.0481 35.6863 59.5036 33.3191 59.5036 30.352H49.5036C49.5036 30.2614 49.5145 30.149 49.5448 30.025C49.5752 29.9008 49.6187 29.7913 49.6651 29.7025C49.7588 29.5235 49.8224 29.5059 49.6931 29.6123L56.0502 37.3317ZM59.5036 30.352C59.5036 28.7303 59.0008 26.8661 57.5112 25.3765L50.4401 32.4475C50.0886 32.096 49.8323 31.68 49.6772 31.2573C49.5289 30.8526 49.5036 30.5269 49.5036 30.352H59.5036ZM57.8167 25.7111C56.3962 24.0064 54.439 23.336 52.6316 23.336V33.336C52.3637 33.336 51.9309 33.2904 51.43 33.0757C50.9099 32.8528 50.4662 32.5109 50.1345 32.1129L57.8167 25.7111ZM84.5314 35.872L80.2125 38.3913L80.288 38.5208L80.3711 38.6455L84.5314 35.872ZM84.0034 40.432L80.2193 37.1639L80.169 37.2221L80.1206 37.2818L84.0034 40.432ZM79.4914 44.608L76.7179 40.4477L76.7179 40.4477L79.4914 44.608ZM64.2274 28.192L69.2163 28.5246L69.5718 23.192H64.2274V28.192ZM60.3874 27.664L56.6877 31.0274L56.7677 31.1154L56.8518 31.1995L60.3874 27.664ZM64.8034 23.296V28.296H69.09L69.7447 24.0597L64.8034 23.296ZM67.2994 13.648L62.6326 11.8531L62.6326 11.8531L67.2994 13.648ZM71.3314 6.688L67.6626 3.29096L67.6455 3.30942L67.6286 3.32805L71.3314 6.688ZM79.6354 5.872L83.8302 3.15104L83.8302 3.15104L79.6354 5.872ZM74.5474 23.296L71.2345 19.551L61.3489 28.296H74.5474V23.296ZM70.0834 28.192V23.192H65.2794L65.0874 27.9922L70.0834 28.192ZM71.1394 38.944L66.7982 41.4247L66.8202 41.4633L66.8429 41.5014L71.1394 38.944ZM78.5314 39.712L81.6257 43.6395L81.6257 43.6395L78.5314 39.712ZM82.2754 35.968L86.0562 39.2399L86.064 39.2309L86.0717 39.222L82.2754 35.968ZM73.5394 10.528L69.0672 8.29193L69.0551 8.31624L69.0432 8.34067L73.5394 10.528ZM71.8594 15.52L67.0129 14.2903L67.0064 14.3161L67.0001 14.342L71.8594 15.52ZM70.5634 22.576L65.6089 21.9032L63.8295 35.0059L73.8331 26.3587L70.5634 22.576ZM74.7874 17.104L70.2601 14.9818L70.2527 14.9975L70.2455 15.0133L74.7874 17.104ZM83.5714 40.296C82.9799 40.296 82.2547 40.1497 81.5509 39.7275C80.8629 39.3146 80.4435 38.7874 80.2125 38.3913L88.8503 33.3527C87.8053 31.5612 85.9098 30.296 83.5714 30.296V40.296ZM80.3711 38.6455C79.8828 37.913 79.9154 37.3438 79.9154 37.456H89.9154C89.9154 36.2242 89.692 34.599 88.6916 33.0985L80.3711 38.6455ZM79.9154 37.456C79.9154 37.7106 79.884 37.7694 79.9068 37.695C79.9347 37.6041 80.0198 37.3948 80.2193 37.1639L87.7875 43.7001C89.4315 41.7965 89.9154 39.4848 89.9154 37.456H79.9154ZM80.1206 37.2818C79.0259 38.631 77.8869 39.6684 76.7179 40.4477L82.2649 48.7683C84.3598 47.3716 86.2289 45.625 87.8862 43.5822L80.1206 37.2818ZM76.7179 40.4477C75.9709 40.9457 75.0796 41.24 73.8754 41.24V51.24C76.8951 51.24 79.7479 50.4463 82.2649 48.7683L76.7179 40.4477ZM73.8754 41.24C71.9353 41.24 71.1421 40.6524 70.6067 39.8992C69.8484 38.8323 69.0834 36.6153 69.0834 32.464H59.0834C59.0834 37.4967 59.9504 42.1677 62.456 45.6928C65.1846 49.5316 69.2874 51.24 73.8754 51.24V41.24ZM69.0834 32.464C69.0834 31.1697 69.1275 29.8566 69.2163 28.5246L59.2384 27.8594C59.1353 29.4074 59.0834 30.9423 59.0834 32.464H69.0834ZM64.2274 23.192H62.3554V33.192H64.2274V23.192ZM62.3554 23.192C62.1481 23.192 62.2104 23.1695 62.439 23.2308C62.6622 23.2907 63.293 23.4985 63.9229 24.1285L56.8518 31.1995C58.701 33.0487 61.1572 33.192 62.3554 33.192V23.192ZM64.0871 24.3006C64.5476 24.8073 64.7502 25.3098 64.835 25.6064C64.9158 25.8891 64.9074 26.0419 64.9074 25.984H54.9074C54.9074 27.2733 55.147 29.3326 56.6877 31.0274L64.0871 24.3006ZM64.9074 25.984C64.9074 25.6261 65.0008 26.2837 64.3449 27.1C63.9901 27.5415 63.529 27.8788 63.0382 28.0824C62.5778 28.2734 62.2171 28.296 62.0674 28.296V18.296C60.2515 18.296 58.0936 18.9149 56.5498 20.836C55.1739 22.5483 54.9074 24.5499 54.9074 25.984H64.9074ZM62.0674 28.296H64.8034V18.296H62.0674V28.296ZM69.7447 24.0597C70.2417 20.8436 70.9907 17.979 71.9661 15.4429L62.6326 11.8531C61.3681 15.141 60.453 18.7084 59.862 22.5323L69.7447 24.0597ZM71.9661 15.4429C72.9346 12.9247 73.9955 11.1927 75.0342 10.0479L67.6286 3.32805C65.5313 5.63934 63.9041 8.54732 62.6326 11.8531L71.9661 15.4429ZM75.0002 10.085C75.9453 9.06435 76.4139 9.096 76.4674 9.096V-0.904001C72.8729 -0.904001 69.9175 0.855646 67.6626 3.29096L75.0002 10.085ZM76.4674 9.096C76.3795 9.096 76.121 9.06885 75.8223 8.9014C75.5337 8.7396 75.4247 8.56856 75.4406 8.59296L83.8302 3.15104C82.1957 0.631243 79.6048 -0.904001 76.4674 -0.904001V9.096ZM75.4406 8.59295C75.5579 8.77391 75.7874 9.25081 75.7874 10.336H85.7874C85.7874 7.83719 85.2488 5.33809 83.8302 3.15104L75.4406 8.59295ZM75.7874 10.336C75.7874 13.6828 74.465 16.6933 71.2345 19.551L77.8602 27.041C82.9498 22.5387 85.7874 16.9092 85.7874 10.336H75.7874ZM74.5474 28.296H79.9234V18.296H74.5474V28.296ZM79.9234 28.296C79.8386 28.296 79.542 28.2895 79.1276 28.1634C78.6931 28.0311 78.072 27.7477 77.4918 27.1675L84.5629 20.0965C82.964 18.4975 80.9784 18.296 79.9234 18.296V28.296ZM77.4918 27.1675C76.801 26.4767 76.5443 25.7573 76.4513 25.4119C76.4011 25.2254 76.3807 25.0833 76.372 25.0036C76.3674 24.9618 76.3653 24.9304 76.3644 24.9107C76.3634 24.8909 76.3634 24.8804 76.3634 24.88H86.3634C86.3634 24.0256 86.2811 21.8146 84.5629 20.0965L77.4918 27.1675ZM76.3634 24.88C76.3634 24.738 76.3972 24.3702 76.6357 23.9333C76.8794 23.4868 77.1994 23.2202 77.4017 23.0967C77.5707 22.9934 77.5892 23.0297 77.3151 23.0855C77.0474 23.14 76.6041 23.192 75.9394 23.192V33.192C78.0935 33.192 80.548 32.8923 82.6131 31.6313C85.0792 30.1255 86.3634 27.6367 86.3634 24.88H76.3634ZM75.9394 23.192H70.0834V33.192H75.9394V23.192ZM65.0874 27.9922C65.0224 29.6158 64.9874 30.941 64.9874 31.936H74.9874C74.9874 31.139 75.0163 29.9682 75.0794 28.3918L65.0874 27.9922ZM64.9874 31.936C64.9874 35.3473 65.3284 38.8525 66.7982 41.4247L75.4806 36.4633C75.5052 36.5064 75.3503 36.2315 75.2092 35.373C75.0749 34.5563 74.9874 33.4282 74.9874 31.936H64.9874ZM66.8429 41.5014C68.6328 44.5085 71.6048 45.96 74.8834 45.96V35.96C74.7008 35.96 74.8109 35.9271 75.0459 36.0536C75.1565 36.1132 75.2543 36.1872 75.331 36.2627C75.4055 36.3361 75.4362 36.3871 75.4358 36.3866L66.8429 41.5014ZM74.8834 45.96C77.3534 45.96 79.6657 45.1837 81.6257 43.6395L75.437 35.7845C75.285 35.9043 75.1654 35.96 74.8834 35.96V45.96ZM81.6257 43.6395C83.0373 42.5273 84.5218 41.013 86.0562 39.2399L78.4945 32.6961C77.149 34.251 76.1374 35.2327 75.437 35.7845L81.6257 43.6395ZM86.0717 39.222C85.9325 39.3843 85.6497 39.6639 85.189 39.9028C84.704 40.1542 84.1439 40.296 83.5714 40.296V30.296C81.3029 30.296 79.5758 31.4346 78.4791 32.714L86.0717 39.222ZM75.1714 3.704C72.7768 3.704 71.2648 5.16926 70.6772 5.82603C69.9776 6.60795 69.4568 7.51282 69.0672 8.29193L78.0115 12.7641C78.23 12.3272 78.2852 12.3201 78.1296 12.494C78.0422 12.5916 77.7905 12.857 77.3521 13.1173C76.8921 13.3904 76.1425 13.704 75.1714 13.704V3.704ZM69.0432 8.34067C68.2516 9.96791 67.5925 12.0063 67.0129 14.2903L76.7058 16.7497C77.2143 14.7457 77.6752 13.4561 78.0356 12.7153L69.0432 8.34067ZM67.0001 14.342C66.4406 16.6501 65.9795 19.1742 65.6089 21.9032L75.5179 23.2488C75.8513 20.7938 76.2542 18.6139 76.7186 16.698L67.0001 14.342ZM73.8331 26.3587C76.1937 24.3182 78.0677 21.9354 79.3293 19.1947L70.2455 15.0133C69.651 16.3046 68.7091 17.5698 67.2936 18.7933L73.8331 26.3587ZM79.3147 19.2262C80.4802 16.7396 81.2274 14.1474 81.2274 11.536H71.2274C71.2274 12.2526 71.0145 13.3724 70.2601 14.9818L79.3147 19.2262ZM81.2274 11.536C81.2274 10.4229 81.1426 8.99075 80.6483 7.66508C80.3891 6.97006 79.9038 5.99193 78.9657 5.15331C77.9232 4.22138 76.5849 3.704 75.1714 3.704V13.704C74.1098 13.704 73.0796 13.3046 72.3011 12.6087C71.6269 12.0061 71.3616 11.3819 71.2785 11.1589C71.1362 10.7772 71.2274 10.761 71.2274 11.536H81.2274ZM82.1591 44.08L86.0213 40.9045L86.0213 40.9045L82.1591 44.08ZM82.1591 31.168L86.5932 33.4787L86.5998 33.466L86.6063 33.4533L82.1591 31.168ZM86.8631 25.648L89.7439 29.7347L89.7504 29.7301L89.7569 29.7255L86.8631 25.648ZM94.5431 23.968L90.5964 27.0377L90.7875 27.2834L91.0076 27.5035L94.5431 23.968ZM95.1671 25.408L90.2915 26.5161L91.3612 31.2228L96.1027 30.3197L95.1671 25.408ZM98.9111 31.696L103.814 32.6766L103.819 32.6527L103.823 32.6287L98.9111 31.696ZM98.1431 40.528L94.1964 43.5977L94.2971 43.7272L94.4061 43.8498L98.1431 40.528ZM101.311 39.808L104.633 43.545L104.671 43.5113L104.708 43.4768L101.311 39.808ZM104.815 35.968L101.019 32.714L100.999 32.737L100.98 32.7602L104.815 35.968ZM107.071 35.872L102.752 38.3913L102.828 38.5208L102.911 38.6455L107.071 35.872ZM106.543 40.432L102.759 37.1639L102.701 37.2306L102.646 37.2992L106.543 40.432ZM102.367 44.56L105.395 48.5391L105.395 48.5391L102.367 44.56ZM95.1671 45.184L91.9248 48.9902L92.0002 49.0544L92.078 49.1156L95.1671 45.184ZM93.1991 42.208L97.9051 40.5187L94.4033 30.7636L88.9478 39.5762L93.1991 42.208ZM90.6551 40.144L86.692 37.0954L86.692 37.0954L90.6551 40.144ZM92.0471 36.832L96.9411 37.8563L96.9451 37.837L96.949 37.8177L92.0471 36.832ZM93.8231 28L98.725 28.9857L99.9583 22.8525L93.7041 23.0014L93.8231 28ZM90.0791 29.536L93.3331 33.3323L93.3417 33.3248L90.0791 29.536ZM87.3911 33.376L92.001 35.3122L92.001 35.3122L87.3911 33.376ZM86.9591 40.672L83.0548 43.7955L83.1162 43.8723L83.1807 43.9467L86.9591 40.672ZM86.9111 41.24C86.5329 41.24 86.3611 41.1741 86.3041 41.1482C86.2561 41.1263 86.1638 41.0779 86.0213 40.9045L78.297 47.2555C80.4985 49.933 83.5417 51.24 86.9111 51.24V41.24ZM86.0213 40.9045C85.7436 40.5668 85.3831 39.8944 85.3831 38.416H75.3831C75.3831 41.6096 76.2066 44.7132 78.297 47.2555L86.0213 40.9045ZM85.3831 38.416C85.3831 36.6612 85.7807 35.0378 86.5932 33.4787L77.7251 28.8573C76.1696 31.8422 75.3831 35.0508 75.3831 38.416H85.3831ZM86.6063 33.4533C87.4532 31.8053 88.5067 30.6068 89.7439 29.7347L83.9823 21.5613C81.3156 23.4412 79.233 25.9227 77.712 28.8827L86.6063 33.4533ZM89.7569 29.7255C90.9855 28.8536 92.0855 28.536 93.1511 28.536V18.536C89.8008 18.536 86.7087 19.6264 83.9694 21.5705L89.7569 29.7255ZM93.1511 28.536C93.2052 28.536 92.9556 28.5467 92.5451 28.4193C92.1195 28.2872 91.2901 27.9296 90.5964 27.0377L98.4899 20.8983C96.7301 18.6357 94.0806 18.536 93.1511 18.536V28.536ZM91.0076 27.5035C90.7623 27.2582 90.5985 27.0303 90.4965 26.8685C90.3938 26.7057 90.3335 26.5776 90.3033 26.508C90.248 26.3803 90.2562 26.361 90.2915 26.5161L100.043 24.2999C99.8448 23.4289 99.3918 21.7456 98.0787 20.4325L91.0076 27.5035ZM96.1027 30.3197C96.444 30.2547 96.8335 30.216 97.2791 30.216V20.216C96.2527 20.216 95.2342 20.3053 94.2316 20.4963L96.1027 30.3197ZM97.2791 30.216C97.6189 30.216 96.9758 30.3039 96.1369 29.7047C95.6608 29.3646 95.2341 28.8773 94.9532 28.2754C94.6847 27.7 94.6311 27.197 94.6311 26.896H104.631C104.631 25.0218 103.882 22.9479 101.949 21.5673C100.326 20.4081 98.5073 20.216 97.2791 20.216V30.216ZM94.6311 26.896C94.6311 26.8204 94.6265 27.0582 94.5064 27.8583C94.3999 28.5686 94.233 29.5305 93.9989 30.7633L103.823 32.6287C104.273 30.2613 104.631 28.1417 104.631 26.896H94.6311ZM94.0082 30.7154C93.2784 34.3644 92.8071 37.3773 92.8071 39.376H102.807C102.807 38.4947 103.072 36.3876 103.814 32.6766L94.0082 30.7154ZM92.8071 39.376C92.8071 40.6162 93.1014 42.1899 94.1964 43.5977L102.09 37.4583C102.737 38.2901 102.807 39.0958 102.807 39.376H92.8071ZM94.4061 43.8498C95.6071 45.201 97.2853 45.96 99.1031 45.96V35.96C99.5511 35.96 100.083 36.0477 100.627 36.2924C101.17 36.5369 101.586 36.8756 101.88 37.2062L94.4061 43.8498ZM99.1031 45.96C101.643 45.96 103.576 44.4848 104.633 43.545L97.9893 36.071C97.7538 36.2803 97.692 36.2946 97.7983 36.2391C97.8962 36.188 98.362 35.96 99.1031 35.96V45.96ZM104.708 43.4768C105.812 42.4545 107.144 40.9766 108.651 39.1758L100.98 32.7602C99.5419 34.4794 98.538 35.5615 97.9141 36.1392L104.708 43.4768ZM108.611 39.222C108.472 39.3843 108.189 39.6639 107.729 39.9028C107.244 40.1542 106.684 40.296 106.111 40.296V30.296C103.843 30.296 102.116 31.4346 101.019 32.714L108.611 39.222ZM106.111 40.296C105.52 40.296 104.794 40.1497 104.091 39.7275C103.403 39.3146 102.983 38.7874 102.752 38.3913L111.39 33.3527C110.345 31.5612 108.45 30.296 106.111 30.296V40.296ZM102.911 38.6455C102.423 37.913 102.455 37.3438 102.455 37.456H112.455C112.455 36.2242 112.232 34.599 111.231 33.0985L102.911 38.6455ZM102.455 37.456C102.455 37.7106 102.424 37.7694 102.447 37.695C102.474 37.6041 102.56 37.3948 102.759 37.1639L110.327 43.7001C111.971 41.7965 112.455 39.4848 112.455 37.456H102.455ZM102.646 37.2992C101.556 38.6557 100.449 39.7365 99.3395 40.5809L105.395 48.5391C107.229 47.1435 108.907 45.4723 110.44 43.5648L102.646 37.2992ZM99.3395 40.5809C98.8963 40.9181 98.5706 41.0861 98.3652 41.1669C98.2649 41.2063 98.1958 41.2241 98.1555 41.2321C98.1163 41.2399 98.0977 41.24 98.0951 41.24V51.24C100.887 51.24 103.35 50.0953 105.395 48.5391L99.3395 40.5809ZM98.0951 41.24C98.1103 41.24 98.137 41.2414 98.1716 41.2474C98.2063 41.2534 98.2392 41.2624 98.2675 41.2725C98.281 41.2774 98.2917 41.2819 98.2993 41.2855C98.307 41.289 98.3108 41.2912 98.3107 41.2911C98.3106 41.291 98.306 41.2885 98.2971 41.2824C98.2881 41.2764 98.2744 41.2667 98.2562 41.2524L92.078 49.1156C93.7806 50.4533 95.8278 51.24 98.0951 51.24V41.24ZM98.4095 41.3778C98.314 41.2965 98.1083 41.0848 97.9051 40.5187L88.4932 43.8973C89.1859 45.8272 90.2922 47.5995 91.9248 48.9902L98.4095 41.3778ZM88.9478 39.5762C87.9328 41.2159 87.2615 41.24 86.9111 41.24V51.24C91.6168 51.24 95.1375 48.5761 97.4505 44.8398L88.9478 39.5762ZM88.6391 46.392C91.5428 46.392 93.5125 44.63 94.6182 43.1926L86.692 37.0954C86.626 37.1813 86.725 37.0232 87.0394 36.8287C87.3943 36.609 87.9507 36.392 88.6391 36.392V46.392ZM94.6182 43.1926C95.8449 41.5979 96.5488 39.7307 96.9411 37.8563L87.1532 35.8077C86.9695 36.6853 86.7453 37.0261 86.692 37.0954L94.6182 43.1926ZM96.949 37.8177L98.725 28.9857L88.9213 27.0143L87.1453 35.8463L96.949 37.8177ZM93.7041 23.0014C91.0532 23.0645 88.7235 24.105 86.8165 25.7472L93.3417 33.3248C93.7388 32.983 93.905 32.9995 93.9421 32.9986L93.7041 23.0014ZM86.8252 25.7397C85.019 27.2879 83.7015 29.2488 82.7812 31.4398L92.001 35.3122C92.4248 34.3032 92.8993 33.7041 93.3331 33.3323L86.8252 25.7397ZM82.7812 31.4398C81.8433 33.673 81.3831 36.0293 81.3831 38.464H91.3831C91.3831 37.3147 91.595 36.279 92.001 35.3122L82.7812 31.4398ZM81.3831 38.464C81.3831 39.9434 81.6417 42.0291 83.0548 43.7955L90.8635 37.5485C91.201 37.9704 91.325 38.3436 91.3652 38.4979C91.4035 38.6448 91.3831 38.6554 91.3831 38.464H81.3831ZM83.1807 43.9467C84.6561 45.649 86.6614 46.392 88.6391 46.392V36.392C88.8599 36.392 89.2291 36.4313 89.6607 36.6163C90.1056 36.8069 90.472 37.0909 90.7376 37.3973L83.1807 43.9467ZM141.618 6.16L142.568 1.2511L142.545 1.24657L142.521 1.24226L141.618 6.16ZM143.826 7.168L140.29 10.7035L140.347 10.7605L140.406 10.8157L143.826 7.168ZM143.682 11.152L140.584 7.22759L140.532 7.26856L140.481 7.31089L143.682 11.152ZM140.898 11.728L140.51 16.713L140.524 16.714L140.898 11.728ZM134.13 11.296L133.831 16.287L133.882 16.2901L133.934 16.2922L134.13 11.296ZM127.794 11.104L127.855 6.10437L123.709 6.05381L122.892 10.1183L127.794 11.104ZM124.53 28.864L119.598 28.042L119.596 28.0538L119.594 28.0656L124.53 28.864ZM123.426 36.448L128.381 37.1161L128.382 37.1088L123.426 36.448ZM122.658 43.36L117.671 42.9973L117.67 43.0067L117.67 43.016L122.658 43.36ZM121.506 45.52L124.323 49.6511L124.385 49.6084L124.447 49.5637L121.506 45.52ZM116.514 45.472L119.836 41.735L119.836 41.735L116.514 45.472ZM115.986 39.664L111.036 38.9569L111.031 38.9948L111.026 39.0327L115.986 39.664ZM116.85 34.048L111.929 33.1607L111.922 33.1998L111.916 33.2391L116.85 34.048ZM117.666 28.96L112.718 28.2438L112.714 28.2715L112.71 28.2992L117.666 28.96ZM118.866 21.712L113.951 20.7945L113.951 20.7945L118.866 21.712ZM120.21 14.896L125.104 15.9187L125.109 15.8977L125.113 15.8766L120.21 14.896ZM120.546 13.264L125.439 14.294L125.444 14.2693L125.449 14.2446L120.546 13.264ZM120.978 11.152L125.873 12.1718L127.167 5.9602L120.825 6.15434L120.978 11.152ZM113.586 11.92L112.455 7.04951L112.455 7.04951L113.586 11.92ZM109.746 13.696L106.21 10.1605L106.21 10.1605L109.746 13.696ZM109.602 19.696L113.943 17.2153L113.876 17.0985L113.803 16.9854L109.602 19.696ZM108.69 22.144L111.631 26.1877L111.646 26.1763L111.662 26.1649L108.69 22.144ZM105.138 22.432L108.501 18.7323L108.44 18.6763L108.376 18.6223L105.138 22.432ZM103.554 20.128L98.9217 22.0099L98.9322 22.0358L98.943 22.0616L103.554 20.128ZM105.57 10.144L108.97 13.8103L108.972 13.808L105.57 10.144ZM113.682 6.496L112.652 1.60324L112.643 1.6051L113.682 6.496ZM136.098 5.536L135.791 10.5266L135.796 10.5268L136.098 5.536ZM140.668 11.0689C140.867 11.1075 140.905 11.1354 140.838 11.1044C140.764 11.071 140.545 10.9579 140.29 10.7035L147.362 3.63247C145.909 2.18022 144.089 1.54541 142.568 1.2511L140.668 11.0689ZM140.406 10.8157C140.254 10.6728 140.032 10.415 139.855 10.0268C139.673 9.62851 139.594 9.2164 139.594 8.848H149.594C149.594 6.68431 148.658 4.84411 147.246 3.52031L140.406 10.8157ZM139.594 8.848C139.594 8.91377 139.582 8.71565 139.717 8.37576C139.867 7.99681 140.15 7.56986 140.584 7.22759L146.78 15.0764C148.988 13.3334 149.594 10.8418 149.594 8.848H139.594ZM140.481 7.31089C140.97 6.90377 141.408 6.78724 141.541 6.7597C141.662 6.73473 141.6 6.76662 141.272 6.742L140.524 16.714C142.242 16.8428 144.801 16.7276 146.883 14.9931L140.481 7.31089ZM141.286 6.74305C138.382 6.51723 136.053 6.36755 134.326 6.29984L133.934 16.2922C135.471 16.3524 137.654 16.4908 140.51 16.7129L141.286 6.74305ZM134.429 6.30497C132.716 6.20218 130.515 6.13682 127.855 6.10437L127.733 16.1036C130.321 16.1352 132.344 16.1978 133.831 16.287L134.429 6.30497ZM122.892 10.1183C121.697 16.0609 120.599 22.0355 119.598 28.042L129.462 29.686C130.445 23.7885 131.523 17.923 132.696 12.0897L122.892 10.1183ZM119.594 28.0656C119.233 30.299 118.858 32.8747 118.47 35.7872L128.382 37.1088C128.762 34.2613 129.123 31.781 129.466 29.6624L119.594 28.0656ZM118.471 35.7799C118.08 38.675 117.81 41.0922 117.671 42.9973L127.645 43.7227C127.762 42.1078 128.004 39.917 128.381 37.1161L118.471 35.7799ZM117.67 43.016C117.68 42.8754 117.727 42.5859 117.91 42.2431C118.098 41.8913 118.347 41.635 118.565 41.4763L124.447 49.5637C126.437 48.1161 127.488 45.9919 127.646 43.704L117.67 43.016ZM118.689 41.3889C118.798 41.3149 118.904 41.2706 118.98 41.249C119.051 41.229 119.054 41.24 118.962 41.24V51.24C120.789 51.24 122.659 50.7857 124.323 49.6511L118.689 41.3889ZM118.962 41.24C118.827 41.24 118.88 41.2225 119.055 41.2773C119.247 41.3376 119.54 41.472 119.836 41.735L113.192 49.209C114.975 50.7936 117.137 51.24 118.962 51.24V41.24ZM119.836 41.735C120.067 41.9403 120.301 42.2384 120.462 42.6144C120.619 42.981 120.65 43.2879 120.65 43.456H110.65C110.65 45.5882 111.457 47.6664 113.192 49.209L119.836 41.735ZM120.65 43.456C120.65 43.0334 120.723 42.045 120.946 40.2953L111.026 39.0327C110.801 40.803 110.65 42.3426 110.65 43.456H120.65ZM120.936 40.3711C121.186 38.616 121.469 36.7781 121.784 34.8569L111.916 33.2391C111.591 35.2219 111.298 37.128 111.036 38.9569L120.936 40.3711ZM121.771 34.9353C122.132 32.9331 122.417 31.1582 122.622 29.6208L112.71 28.2992C112.531 29.6418 112.272 31.2589 111.929 33.1607L121.771 34.9353ZM122.614 29.6762C122.957 27.3111 123.346 24.9622 123.781 22.6295L113.951 20.7945C113.49 23.2618 113.079 25.7449 112.718 28.2438L122.614 29.6762ZM123.781 22.6295C124.223 20.2607 124.664 18.024 125.104 15.9187L115.316 13.8733C114.86 16.056 114.405 18.3633 113.951 20.7945L123.781 22.6295ZM125.113 15.8766C125.205 15.4168 125.313 14.8897 125.439 14.294L115.653 12.234C115.523 12.8543 115.407 13.4152 115.307 13.9154L125.113 15.8766ZM125.449 14.2446C125.574 13.6199 125.715 12.9292 125.873 12.1718L116.083 10.1322C115.921 10.9108 115.774 11.6281 115.643 12.2834L125.449 14.2446ZM120.825 6.15434C117.555 6.25444 114.715 6.52499 112.455 7.04951L114.717 16.7905C116.041 16.483 118.129 16.2416 121.131 16.1497L120.825 6.15434ZM112.455 7.04951C110.313 7.54688 107.953 8.41743 106.21 10.1605L113.282 17.2315C113.146 17.3671 113.124 17.333 113.381 17.2141C113.633 17.0975 114.059 16.9431 114.717 16.7905L112.455 7.04951ZM106.21 10.1605C104.405 11.9657 103.642 14.2643 103.642 16.576H113.642C113.642 16.5043 113.652 16.5867 113.587 16.7577C113.516 16.941 113.403 17.1099 113.282 17.2315L106.21 10.1605ZM103.642 16.576C103.642 18.7073 104.285 20.6783 105.401 22.4066L113.803 16.9854C113.639 16.7297 113.642 16.6207 113.642 16.576H103.642ZM105.261 22.1767C104.961 21.6514 104.794 21.0372 104.794 20.416H114.794C114.794 19.2828 114.499 18.1886 113.943 17.2153L105.261 22.1767ZM104.794 20.416C104.794 19.6509 105.041 19.0251 105.305 18.6121C105.54 18.2429 105.751 18.0987 105.718 18.1231L111.662 26.1649C113.005 25.1725 114.794 23.2898 114.794 20.416H104.794ZM105.749 18.1003C105.748 18.1009 105.821 18.0484 105.967 17.9975C106.12 17.9445 106.299 17.912 106.482 17.912V27.912C108.445 27.912 110.191 27.2347 111.631 26.1877L105.749 18.1003ZM106.482 17.912C106.702 17.912 107.033 17.945 107.42 18.0833C107.817 18.2253 108.189 18.4482 108.501 18.7323L101.775 26.1317C103.179 27.4087 104.885 27.912 106.482 27.912V17.912ZM108.376 18.6223C108.479 18.7096 108.36 18.6591 108.165 18.1944L98.943 22.0616C99.5801 23.5809 100.517 25.0664 101.9 26.2417L108.376 18.6223ZM108.186 18.2461C108.048 17.9066 107.93 17.4076 107.93 16.672H97.93C97.93 18.4964 98.2276 20.3014 98.9217 22.0099L108.186 18.2461ZM107.93 16.672C107.93 15.1391 108.371 14.3656 108.97 13.8103L102.17 6.47766C99.2491 9.18641 97.93 12.7649 97.93 16.672H107.93ZM108.972 13.808C109.846 12.9966 111.57 12.0561 114.721 11.3869L112.643 1.6051C108.562 2.47194 104.878 3.96338 102.168 6.48003L108.972 13.808ZM114.712 11.3887C117.894 10.7189 122.187 10.344 127.698 10.344V0.343997C121.817 0.343997 116.766 0.737057 112.652 1.60325L114.712 11.3887ZM127.698 10.344C131.175 10.344 133.859 10.4077 135.791 10.5266L136.405 0.545438C134.177 0.408332 131.261 0.343997 127.698 0.343997V10.344ZM135.796 10.5268C137.767 10.6463 139.397 10.8358 140.715 11.0777L142.521 1.24226C140.703 0.908222 138.653 0.681684 136.4 0.545155L135.796 10.5268ZM133.628 44.08L137.49 40.9045L137.49 40.9045L133.628 44.08ZM133.628 31.168L138.062 33.4787L138.069 33.466L138.075 33.4533L133.628 31.168ZM138.332 25.648L141.213 29.7347L141.219 29.7301L141.226 29.7255L138.332 25.648ZM146.012 23.968L142.065 27.0377L142.256 27.2834L142.476 27.5035L146.012 23.968ZM146.636 25.408L141.76 26.5161L142.83 31.2228L147.571 30.3197L146.636 25.408ZM150.38 31.696L155.283 32.6766L155.288 32.6527L155.292 32.6287L150.38 31.696ZM149.612 40.528L145.665 43.5977L145.766 43.7272L145.875 43.8498L149.612 40.528ZM152.78 39.808L156.102 43.545L156.14 43.5113L156.177 43.4768L152.78 39.808ZM156.284 35.968L152.488 32.714L152.468 32.737L152.448 32.7602L156.284 35.968ZM158.54 35.872L154.221 38.3913L154.296 38.5208L154.38 38.6455L158.54 35.872ZM158.012 40.432L154.228 37.1639L154.17 37.2306L154.115 37.2992L158.012 40.432ZM153.836 44.56L156.863 48.5391L156.863 48.5391L153.836 44.56ZM146.636 45.184L143.394 48.9902L143.469 49.0544L143.547 49.1156L146.636 45.184ZM144.668 42.208L149.374 40.5187L145.872 30.7636L140.417 39.5762L144.668 42.208ZM142.124 40.144L138.161 37.0954L138.161 37.0954L142.124 40.144ZM143.516 36.832L148.41 37.8563L148.414 37.837L148.418 37.8177L143.516 36.832ZM145.292 28L150.194 28.9857L151.427 22.8525L145.173 23.0014L145.292 28ZM141.548 29.536L144.802 33.3323L144.81 33.3248L141.548 29.536ZM138.86 33.376L143.47 35.3122L143.47 35.3122L138.86 33.376ZM138.428 40.672L134.524 43.7955L134.585 43.8723L134.649 43.9467L138.428 40.672ZM138.38 41.24C138.002 41.24 137.83 41.1741 137.773 41.1482C137.725 41.1263 137.633 41.0779 137.49 40.9045L129.766 47.2555C131.967 49.933 135.01 51.24 138.38 51.24V41.24ZM137.49 40.9045C137.212 40.5668 136.852 39.8944 136.852 38.416H126.852C126.852 41.6096 127.675 44.7132 129.766 47.2555L137.49 40.9045ZM136.852 38.416C136.852 36.6612 137.249 35.0378 138.062 33.4787L129.194 28.8573C127.638 31.8422 126.852 35.0508 126.852 38.416H136.852ZM138.075 33.4533C138.922 31.8053 139.975 30.6068 141.213 29.7347L135.451 21.5613C132.784 23.4412 130.702 25.9227 129.181 28.8827L138.075 33.4533ZM141.226 29.7255C142.454 28.8536 143.554 28.536 144.62 28.536V18.536C141.27 18.536 138.177 19.6264 135.438 21.5705L141.226 29.7255ZM144.62 28.536C144.674 28.536 144.424 28.5467 144.014 28.4193C143.588 28.2872 142.759 27.9296 142.065 27.0377L149.959 20.8983C148.199 18.6357 145.549 18.536 144.62 18.536V28.536ZM142.476 27.5035C142.231 27.2582 142.067 27.0303 141.965 26.8685C141.863 26.7057 141.802 26.5776 141.772 26.508C141.717 26.3803 141.725 26.361 141.76 26.5161L151.512 24.2999C151.314 23.4289 150.861 21.7456 149.547 20.4325L142.476 27.5035ZM147.571 30.3197C147.913 30.2547 148.302 30.216 148.748 30.216V20.216C147.721 20.216 146.703 20.3053 145.7 20.4963L147.571 30.3197ZM148.748 30.216C149.088 30.216 148.445 30.3039 147.606 29.7047C147.13 29.3646 146.703 28.8773 146.422 28.2754C146.153 27.7 146.1 27.197 146.1 26.896H156.1C156.1 25.0218 155.351 22.9479 153.418 21.5673C151.795 20.4081 149.976 20.216 148.748 20.216V30.216ZM146.1 26.896C146.1 26.8204 146.095 27.0582 145.975 27.8583C145.869 28.5686 145.702 29.5305 145.468 30.7633L155.292 32.6287C155.742 30.2613 156.1 28.1417 156.1 26.896H146.1ZM145.477 30.7154C144.747 34.3644 144.276 37.3773 144.276 39.376H154.276C154.276 38.4947 154.541 36.3876 155.283 32.6766L145.477 30.7154ZM144.276 39.376C144.276 40.6162 144.57 42.1899 145.665 43.5977L153.559 37.4583C154.206 38.2901 154.276 39.0958 154.276 39.376H144.276ZM145.875 43.8498C147.076 45.201 148.754 45.96 150.572 45.96V35.96C151.02 35.96 151.552 36.0477 152.096 36.2924C152.639 36.5369 153.055 36.8756 153.349 37.2062L145.875 43.8498ZM150.572 45.96C153.112 45.96 155.044 44.4848 156.102 43.545L149.458 36.071C149.223 36.2803 149.161 36.2946 149.267 36.2391C149.365 36.188 149.831 35.96 150.572 35.96V45.96ZM156.177 43.4768C157.281 42.4545 158.613 40.9766 160.119 39.1758L152.448 32.7602C151.011 34.4794 150.007 35.5615 149.383 36.1392L156.177 43.4768ZM160.08 39.222C159.941 39.3843 159.658 39.6639 159.197 39.9028C158.713 40.1542 158.152 40.296 157.58 40.296V30.296C155.311 30.296 153.584 31.4346 152.488 32.714L160.08 39.222ZM157.58 40.296C156.988 40.296 156.263 40.1497 155.559 39.7275C154.871 39.3146 154.452 38.7874 154.221 38.3913L162.859 33.3527C161.814 31.5612 159.918 30.296 157.58 30.296V40.296ZM154.38 38.6455C153.891 37.913 153.924 37.3438 153.924 37.456H163.924C163.924 36.2242 163.7 34.599 162.7 33.0985L154.38 38.6455ZM153.924 37.456C153.924 37.7106 153.893 37.7694 153.915 37.695C153.943 37.6041 154.028 37.3948 154.228 37.1639L161.796 43.7001C163.44 41.7965 163.924 39.4848 163.924 37.456H153.924ZM154.115 37.2992C153.024 38.6557 151.918 39.7365 150.808 40.5809L156.863 48.5391C158.698 47.1435 160.375 45.4723 161.909 43.5648L154.115 37.2992ZM150.808 40.5809C150.365 40.9181 150.039 41.0861 149.834 41.1669C149.734 41.2063 149.665 41.2241 149.624 41.2321C149.585 41.2399 149.566 41.24 149.564 41.24V51.24C152.356 51.24 154.818 50.0953 156.863 48.5391L150.808 40.5809ZM149.564 41.24C149.579 41.24 149.606 41.2414 149.64 41.2474C149.675 41.2534 149.708 41.2624 149.736 41.2725C149.75 41.2774 149.76 41.2819 149.768 41.2855C149.776 41.289 149.78 41.2912 149.779 41.2911C149.779 41.291 149.775 41.2885 149.766 41.2824C149.757 41.2764 149.743 41.2667 149.725 41.2524L143.547 49.1156C145.249 50.4533 147.297 51.24 149.564 51.24V41.24ZM149.878 41.3778C149.783 41.2965 149.577 41.0848 149.374 40.5187L139.962 43.8973C140.655 45.8272 141.761 47.5995 143.394 48.9902L149.878 41.3778ZM140.417 39.5762C139.402 41.2159 138.73 41.24 138.38 41.24V51.24C143.086 51.24 146.606 48.5761 148.919 44.8398L140.417 39.5762ZM140.108 46.392C143.012 46.392 144.981 44.63 146.087 43.1926L138.161 37.0954C138.095 37.1813 138.194 37.0232 138.508 36.8287C138.863 36.609 139.419 36.392 140.108 36.392V46.392ZM146.087 43.1926C147.314 41.5979 148.018 39.7307 148.41 37.8563L138.622 35.8077C138.438 36.6853 138.214 37.0261 138.161 37.0954L146.087 43.1926ZM148.418 37.8177L150.194 28.9857L140.39 27.0143L138.614 35.8463L148.418 37.8177ZM145.173 23.0014C142.522 23.0645 140.192 24.105 138.285 25.7472L144.81 33.3248C145.208 32.983 145.374 32.9995 145.411 32.9986L145.173 23.0014ZM138.294 25.7397C136.488 27.2879 135.17 29.2488 134.25 31.4398L143.47 35.3122C143.894 34.3032 144.368 33.7041 144.802 33.3323L138.294 25.7397ZM134.25 31.4398C133.312 33.673 132.852 36.0293 132.852 38.464H142.852C142.852 37.3147 143.064 36.279 143.47 35.3122L134.25 31.4398ZM132.852 38.464C132.852 39.9434 133.11 42.0291 134.524 43.7955L142.332 37.5485C142.67 37.9704 142.794 38.3436 142.834 38.4979C142.872 38.6448 142.852 38.6554 142.852 38.464H132.852ZM134.649 43.9467C136.125 45.649 138.13 46.392 140.108 46.392V36.392C140.329 36.392 140.698 36.4313 141.129 36.6163C141.574 36.8069 141.941 37.0909 142.206 37.3973L134.649 43.9467ZM174.175 35.872L169.856 38.3914L169.931 38.5208L170.014 38.6455L174.175 35.872ZM173.647 40.432L169.863 37.1639L169.812 37.2221L169.764 37.2818L173.647 40.432ZM169.135 44.608L166.361 40.4477L166.342 40.4605L166.323 40.4734L169.135 44.608ZM157.375 42.4L152.948 44.7242L152.959 44.7457L152.971 44.7672L157.375 42.4ZM156.847 19.12L151.949 18.1153L151.946 18.1304L151.943 18.1455L156.847 19.12ZM161.311 6.256L156.936 3.83442L156.928 3.84942L156.92 3.86448L161.311 6.256ZM171.967 3.04L167.679 5.61248L167.713 5.66888L167.748 5.72437L171.967 3.04ZM170.143 22.384L165.533 20.4463L165.533 20.4463L170.143 22.384ZM161.551 37.312L157.52 34.354L156.265 36.0635L156.622 38.1535L161.551 37.312ZM162.655 40.144L158.918 43.4658L158.965 43.519L159.014 43.5708L162.655 40.144ZM168.127 39.856L171.106 43.8715L171.147 43.841L171.188 43.8096L168.127 39.856ZM171.919 35.968L168.122 32.714L168.108 32.7306L168.094 32.7473L171.919 35.968ZM164.815 9.616L160.095 7.96678L160.095 7.96678L164.815 9.616ZM162.367 19.504L157.445 18.6237L157.445 18.6237L162.367 19.504ZM161.215 30.832L156.216 30.7435L155.888 49.2477L165.489 33.4259L161.215 30.832ZM166.639 19.6L171.345 21.2893L171.349 21.2766L166.639 19.6ZM173.215 40.296C172.623 40.296 171.898 40.1497 171.194 39.7275C170.506 39.3146 170.087 38.7874 169.856 38.3914L178.494 33.3526C177.449 31.5612 175.553 30.296 173.215 30.296V40.296ZM170.014 38.6455C169.526 37.913 169.559 37.3438 169.559 37.456H179.559C179.559 36.2242 179.335 34.599 178.335 33.0985L170.014 38.6455ZM169.559 37.456C169.559 37.7106 169.527 37.7694 169.55 37.695C169.578 37.6041 169.663 37.3948 169.863 37.1639L177.431 43.7001C179.075 41.7965 179.559 39.4848 179.559 37.456H169.559ZM169.764 37.2818C168.669 38.631 167.53 39.6684 166.361 40.4477L171.908 48.7683C174.003 47.3716 175.872 45.625 177.53 43.5822L169.764 37.2818ZM166.323 40.4734C165.602 40.9637 164.77 41.24 163.663 41.24V51.24C166.652 51.24 169.467 50.4283 171.946 48.7426L166.323 40.4734ZM163.663 41.24C163.037 41.24 162.738 41.1066 162.585 41.0128C162.423 40.9138 162.124 40.6754 161.779 40.0328L152.971 44.7672C154.001 46.6846 155.439 48.3662 157.373 49.5472C159.315 50.7334 161.473 51.24 163.663 51.24V41.24ZM161.802 40.0758C160.955 38.4639 160.359 36.0275 160.359 32.464H150.359C150.359 37.0285 151.106 41.2161 152.948 44.7242L161.802 40.0758ZM160.359 32.464C160.359 28.9684 160.805 24.8564 161.751 20.0945L151.943 18.1455C150.905 23.3676 150.359 28.1516 150.359 32.464H160.359ZM161.745 20.1247C162.693 15.5025 164.037 11.7046 165.702 8.64751L156.92 3.86448C154.681 7.97542 153.049 12.7535 151.949 18.1153L161.745 20.1247ZM165.685 8.67758C166.463 7.27311 167.137 6.5486 167.593 6.20116C167.979 5.90735 168.199 5.88 168.367 5.88V-4.12C163.006 -4.12 159.313 -0.4599 156.936 3.83442L165.685 8.67758ZM168.367 5.88C168.358 5.88 168.291 5.87859 168.183 5.85037C168.073 5.82141 167.956 5.77327 167.846 5.70746C167.615 5.56853 167.586 5.45625 167.679 5.61248L176.254 0.467519C174.588 -2.30908 171.848 -4.12 168.367 -4.12V5.88ZM167.748 5.72437C167.915 5.98593 168.311 6.91797 168.311 9.136H178.311C178.311 6.04203 177.811 2.91007 176.185 0.355622L167.748 5.72437ZM168.311 9.136C168.311 12.057 167.49 15.7919 165.533 20.4463L174.752 24.3217C177.019 18.9281 178.311 13.831 178.311 9.136H168.311ZM165.533 20.4463C163.591 25.0681 160.931 29.7046 157.52 34.354L165.582 40.27C169.402 35.0634 172.471 29.7479 174.752 24.3217L165.533 20.4463ZM156.622 38.1535C156.903 39.7981 157.48 41.8489 158.918 43.4658L166.392 36.8222C166.516 36.9618 166.589 37.076 166.625 37.1378C166.66 37.1993 166.666 37.2214 166.653 37.188C166.64 37.155 166.614 37.0814 166.582 36.9579C166.55 36.8351 166.514 36.6743 166.479 36.4705L156.622 38.1535ZM159.014 43.5708C160.583 45.2383 162.633 45.96 164.671 45.96V35.96C164.804 35.96 165.077 35.9831 165.419 36.1213C165.772 36.2642 166.073 36.4804 166.296 36.7172L159.014 43.5708ZM164.671 45.96C166.985 45.96 169.197 45.2879 171.106 43.8715L165.148 35.8405C165.073 35.8961 164.981 35.96 164.671 35.96V45.96ZM171.188 43.8096C172.607 42.7105 174.144 41.0876 175.743 39.1887L168.094 32.7473C166.621 34.4964 165.63 35.4655 165.066 35.9024L171.188 43.8096ZM175.715 39.222C175.576 39.3843 175.293 39.6639 174.832 39.9028C174.347 40.1542 173.787 40.296 173.215 40.296V30.296C170.946 30.296 169.219 31.4346 168.122 32.714L175.715 39.222ZM167.311 0.631999C165.549 0.631999 164.254 1.4351 163.509 2.06554C162.771 2.69066 162.251 3.40895 161.898 3.97342C161.186 5.10912 160.601 6.51758 160.095 7.96678L169.535 11.2652C169.957 10.0584 170.251 9.47488 170.372 9.28258C170.434 9.18305 170.318 9.40334 169.972 9.69645C169.62 9.9949 168.704 10.632 167.311 10.632V0.631999ZM160.095 7.96678C159.051 10.9533 158.178 14.5257 157.445 18.6237L167.289 20.3843C167.964 16.6103 168.722 13.5907 169.535 11.2652L160.095 7.96678ZM157.445 18.6237C156.699 22.7941 156.285 26.8358 156.216 30.7435L166.214 30.9205C166.273 27.5962 166.627 24.0859 167.289 20.3843L157.445 18.6237ZM165.489 33.4259C167.918 29.424 169.877 25.3783 171.345 21.2893L161.933 17.9107C160.713 21.3097 159.056 24.752 156.94 28.2381L165.489 33.4259ZM171.349 21.2766C172.832 17.1111 173.655 13.0943 173.655 9.28H163.655C163.655 11.6737 163.134 14.5369 161.928 17.9234L171.349 21.2766ZM173.655 9.28C173.655 7.89764 173.546 6.26931 173.01 4.81547C172.732 4.05832 172.222 3.0289 171.253 2.15232C170.178 1.17907 168.79 0.631999 167.311 0.631999V10.632C166.279 10.632 165.284 10.2369 164.544 9.56768C163.911 8.99509 163.682 8.42168 163.627 8.27253C163.563 8.09991 163.581 8.07466 163.608 8.29345C163.633 8.49474 163.655 8.81489 163.655 9.28H173.655ZM191.079 41.008L192.037 36.1005L192.037 36.1005L191.079 41.008ZM191.943 45.328L195.211 49.1121L195.218 49.1066L195.224 49.101L191.943 45.328ZM183.207 44.128L179.671 47.6635L179.711 47.7028L179.751 47.7412L183.207 44.128ZM182.967 35.824L184.923 40.4257L184.936 40.42L184.949 40.4143L182.967 35.824ZM185.991 33.904L189.699 37.2586L189.737 37.2158L189.775 37.1721L185.991 33.904ZM186.519 30.064L182.572 33.1337L182.673 33.2632L182.782 33.3858L186.519 30.064ZM182.775 31.504L178.958 28.2743L178.934 28.3032L178.91 28.3324L182.775 31.504ZM179.895 36.352L184.439 38.4378L184.446 38.4239L184.452 38.4099L179.895 36.352ZM177.783 42.4L172.928 41.2049L172.921 41.2327L172.915 41.2606L177.783 42.4ZM176.535 45.472L172.786 42.1639L172.779 42.1717L172.772 42.1795L176.535 45.472ZM172.167 45.184L167.896 47.7837L167.963 47.894L168.036 48.0007L172.167 45.184ZM171.255 41.824L166.283 42.3529L166.283 42.3529L171.255 41.824ZM172.503 19.792L167.592 18.851L167.59 18.8652L167.587 18.8794L172.503 19.792ZM176.967 6.352L172.575 3.96314L172.571 3.96999L172.567 3.97686L176.967 6.352ZM187.623 2.8L183.527 5.66731L183.568 5.72601L183.611 5.78351L187.623 2.8ZM186.183 17.776L190.571 20.1731L190.576 20.1646L190.58 20.1561L186.183 17.776ZM176.967 29.92L173.282 26.5402L172.078 27.8533L171.975 29.632L176.967 29.92ZM176.823 35.056H171.823L181.491 36.8484L176.823 35.056ZM182.103 26.368L185.454 30.0785L185.471 30.0637L185.487 30.0488L182.103 26.368ZM191.511 25.264L187.762 28.5721L187.789 28.6027L187.816 28.6328L191.511 25.264ZM187.047 38.08L184.708 33.6611L181.413 35.4052L182.144 39.0606L187.047 38.08ZM188.199 40.096L185.426 44.2563L185.557 44.3439L185.694 44.4231L188.199 40.096ZM181.143 8.128L185.734 10.1085L185.741 10.0924L185.748 10.0762L181.143 8.128ZM179.079 14.8L174.216 13.6394L174.211 13.6596L174.206 13.6798L179.079 14.8ZM177.495 23.92L172.534 23.2939L170.431 39.9615L181.306 27.1567L177.495 23.92ZM182.391 16.288L177.878 14.1363L177.867 14.1578L177.857 14.1793L182.391 16.288ZM184.023 6.448L188.646 4.54425L188.646 4.54424L184.023 6.448ZM190.121 45.9155C190.108 45.9129 189.481 45.7898 188.859 45.1074C188.176 44.3573 188.047 43.5395 188.047 43.168H198.047C198.047 41.6125 197.59 39.8427 196.251 38.3726C194.973 36.9702 193.362 36.3591 192.037 36.1005L190.121 45.9155ZM188.047 43.168C188.047 42.768 188.147 42.3691 188.319 42.0324C188.479 41.7187 188.645 41.5702 188.662 41.555L195.224 49.101C196.791 47.7382 198.047 45.7283 198.047 43.168H188.047ZM188.675 41.5439C188.933 41.3206 189.157 41.2387 189.224 41.2188C189.275 41.2036 189.179 41.24 188.871 41.24V51.24C190.891 51.24 193.268 50.7899 195.211 49.1121L188.675 41.5439ZM188.871 41.24C187.672 41.24 187.08 40.914 186.663 40.5148L179.751 47.7412C182.278 50.158 185.462 51.24 188.871 51.24V41.24ZM186.743 40.5925C186.366 40.2164 186.047 39.6798 186.047 38.512H176.047C176.047 41.9522 177.168 45.1596 179.671 47.6635L186.743 40.5925ZM186.047 38.512C186.047 38.7855 185.96 39.2996 185.596 39.8102C185.257 40.2846 184.909 40.4314 184.923 40.4257L181.011 31.2223C179.745 31.7606 178.437 32.6274 177.458 33.9978C176.454 35.4044 176.047 36.9905 176.047 38.512H186.047ZM184.949 40.4143C186.62 39.6928 188.388 38.7071 189.699 37.2586L182.283 30.5494C182.359 30.4653 182.336 30.5166 182.099 30.6669C181.87 30.8125 181.511 31.0064 180.985 31.2337L184.949 40.4143ZM189.775 37.1721C191.222 35.4966 191.903 33.4655 191.903 31.36H181.903C181.903 31.3389 181.908 31.2221 181.968 31.0527C182.031 30.8786 182.122 30.7341 182.207 30.6359L189.775 37.1721ZM191.903 31.36C191.903 30.1488 191.647 28.3066 190.256 26.7422L182.782 33.3858C181.903 32.3974 181.903 31.4192 181.903 31.36H191.903ZM190.466 26.9943C189.335 25.5402 187.614 24.632 185.655 24.632V34.632C185.128 34.632 184.512 34.5188 183.899 34.2121C183.291 33.9083 182.857 33.5003 182.572 33.1337L190.466 26.9943ZM185.655 24.632C182.439 24.632 180.189 26.82 178.958 28.2743L186.592 34.7337C186.75 34.5471 186.87 34.4241 186.951 34.349C187.033 34.2726 187.055 34.2644 187.012 34.2922C186.939 34.3394 186.458 34.632 185.655 34.632V24.632ZM178.91 28.3324C177.53 30.0141 176.356 32.0393 175.338 34.2941L184.452 38.4099C185.226 36.6967 185.972 35.4899 186.64 34.6756L178.91 28.3324ZM175.351 34.2662C174.324 36.5038 173.515 38.818 172.928 41.2049L182.638 43.5951C183.075 41.822 183.674 40.1042 184.439 38.4378L175.351 34.2662ZM172.915 41.2606C172.776 41.8507 172.655 42.2167 172.575 42.4141C172.537 42.508 172.522 42.5272 172.542 42.4933C172.559 42.4625 172.634 42.3358 172.786 42.1639L180.284 48.7801C181.648 47.2345 182.278 45.1333 182.651 43.5394L172.915 41.2606ZM172.772 42.1795C173.178 41.7156 173.639 41.4595 173.984 41.3369C174.295 41.2263 174.461 41.24 174.375 41.24V51.24C176.135 51.24 178.532 50.7827 180.298 48.7645L172.772 42.1795ZM174.375 41.24C174.467 41.24 174.801 41.2572 175.236 41.4653C175.7 41.6872 176.064 42.0241 176.298 42.3673L168.036 48.0007C169.611 50.3109 172.043 51.24 174.375 51.24V41.24ZM176.438 42.5843C176.527 42.7297 176.497 42.7346 176.428 42.4822C176.363 42.2415 176.287 41.8577 176.227 41.2951L166.283 42.3529C166.471 44.1169 166.877 46.1089 167.896 47.7837L176.438 42.5843ZM176.227 41.2951C176.096 40.0605 176.015 38.065 176.015 35.2H166.015C166.015 38.159 166.094 40.5795 166.283 42.3529L176.227 41.2951ZM176.015 35.2C176.015 30.6075 176.477 25.778 177.419 20.7046L167.587 18.8794C166.545 24.494 166.015 29.9365 166.015 35.2H176.015ZM177.414 20.733C178.371 15.7381 179.721 11.7754 181.367 8.72714L172.567 3.97686C170.309 8.16064 168.683 13.1579 167.592 18.851L177.414 20.733ZM181.359 8.74086C182.14 7.306 182.82 6.5648 183.282 6.20913C183.672 5.90906 183.896 5.88 184.071 5.88V-4.12C178.652 -4.12 174.945 -0.39606 172.575 3.96314L181.359 8.74086ZM184.071 5.88C184.075 5.88 184.03 5.88014 183.95 5.86087C183.868 5.84109 183.776 5.80723 183.685 5.75853C183.491 5.6535 183.453 5.56193 183.527 5.66731L191.719 -0.0673122C189.955 -2.58698 187.289 -4.12 184.071 -4.12V5.88ZM183.611 5.78351C183.73 5.94403 184.015 6.43579 184.015 7.696H194.015C194.015 4.9242 193.372 2.15196 191.635 -0.183516L183.611 5.78351ZM184.015 7.696C184.015 9.92831 183.367 12.4747 181.786 15.3959L190.58 20.1561C192.775 16.1013 194.015 11.9277 194.015 7.696H184.015ZM181.795 15.3789C180.181 18.3339 177.407 22.0434 173.282 26.5402L180.652 33.2998C185.039 28.5166 188.409 24.1301 190.571 20.1731L181.795 15.3789ZM171.975 29.632C171.873 31.3971 171.823 33.2052 171.823 35.056H181.823C181.823 33.3868 181.869 31.7709 181.959 30.208L171.975 29.632ZM181.491 36.8484C182.896 33.1875 184.303 31.1188 185.454 30.0785L178.752 22.6575C175.935 25.2012 173.822 28.9245 172.155 33.2636L181.491 36.8484ZM185.487 30.0488C187.044 28.6171 187.738 28.632 187.671 28.632V18.632C184.148 18.632 181.13 20.4709 178.719 22.6872L185.487 30.0488ZM187.671 28.632C187.788 28.632 187.855 28.6419 187.883 28.6471C187.909 28.652 187.903 28.6534 187.875 28.6417C187.847 28.6296 187.815 28.6118 187.787 28.5912C187.759 28.571 187.751 28.5602 187.762 28.5721L195.26 21.9559C193.247 19.6743 190.54 18.632 187.671 18.632V28.632ZM187.816 28.6328C187.893 28.7165 187.999 28.8249 187.999 29.296H197.999C197.999 26.5671 197.113 23.9875 195.206 21.8952L187.816 28.6328ZM187.999 29.296C187.999 30.1596 187.793 30.873 187.384 31.5443L195.926 36.7437C197.309 34.471 197.999 31.9524 197.999 29.296H187.999ZM187.384 31.5443C187.115 31.9856 186.41 32.7596 184.708 33.6611L189.386 42.4989C192.036 41.0964 194.403 39.2464 195.926 36.7437L187.384 31.5443ZM182.144 39.0606C182.487 40.7763 183.357 42.8772 185.426 44.2563L190.973 35.9357C191.889 36.5468 191.991 37.3037 191.95 37.0994L182.144 39.0606ZM185.694 44.4231C187.039 45.202 188.664 45.6311 190.121 45.9155L192.037 36.1005C191.511 35.9979 191.136 35.9009 190.884 35.8213C190.616 35.7362 190.59 35.7029 190.704 35.7689L185.694 44.4231ZM183.063 0.631999C180.32 0.631999 178.718 2.51875 178.188 3.20744C177.487 4.1186 176.955 5.19365 176.538 6.1798L185.748 10.0762C186.035 9.39835 186.175 9.2254 186.114 9.30455C186.078 9.35173 185.866 9.62466 185.442 9.91454C184.994 10.2213 184.175 10.632 183.063 10.632V0.631999ZM176.552 6.14754C175.685 8.15665 174.918 10.6939 174.216 13.6394L183.942 15.9606C184.584 13.2741 185.193 11.3633 185.734 10.1085L176.552 6.14754ZM174.206 13.6798C173.523 16.6506 172.968 19.8578 172.534 23.2939L182.456 24.5461C182.854 21.3902 183.355 18.5174 183.952 15.9202L174.206 13.6798ZM181.306 27.1567C183.577 24.4822 185.454 21.5594 186.925 18.3967L177.857 14.1793C176.768 16.5206 175.381 18.6858 173.684 20.6833L181.306 27.1567ZM186.904 18.4397C188.427 15.2452 189.359 12.0027 189.359 8.8H179.359C179.359 10.0773 178.979 11.8268 177.878 14.1363L186.904 18.4397ZM189.359 8.8C189.359 7.53466 189.239 5.9823 188.646 4.54425L179.4 8.35174C179.352 8.23532 179.33 8.15573 179.323 8.12741C179.315 8.09828 179.318 8.10359 179.325 8.1511C179.34 8.25265 179.359 8.46003 179.359 8.8H189.359ZM188.646 4.54424C188.029 3.04605 186.343 0.631999 183.063 0.631999V10.632C182.072 10.632 181.111 10.27 180.377 9.6457C179.736 9.10111 179.476 8.53841 179.4 8.35175L188.646 4.54424Z" fill="black" mask="url(#path-1-outside-1_9_5)"/>
</g>
<defs>
<filter id="filter0_d_9_5" x="0.659961" y="0.579997" width="203.687" height="62.12" filterUnits="userSpaceOnUse" color-interpolation-filters="sRGB">
<feFlood flood-opacity="0" result="BackgroundImageFix"/>
<feColorMatrix in="SourceAlpha" type="matrix" values="0 0 0 0 0 0 0 0 0 0 0 0 0 0 0 0 0 0 127 0" result="hardAlpha"/>
<feOffset dx="4" dy="7"/>
<feGaussianBlur stdDeviation="3.65"/>
<feComposite in2="hardAlpha" operator="out"/>
<feColorMatrix type="matrix" values="0 0 0 0 0 0 0 0 0 0 0 0 0 0 0 0 0 0 0.26 0"/>
<feBlend mode="normal" in2="BackgroundImageFix" result="effect1_dropShadow_9_5"/>
<feBlend mode="normal" in="SourceGraphic" in2="effect1_dropShadow_9_5" result="shape"/>
</filter>
</defs>
</svg>
